<svg width="30440" height="4424" viewBox="0 0 30440 4424" fill="none" xmlns="http://www.w3.org/2000/svg">
<path d="M11286.4 3521.27L12073.9 4353.57H10300.5L9346.66 3220.36H7310.84V4353.57H5985.64V2163.98H9711.57C10121.3 2163.98 10441.4 1978.32 10441.4 1683.81C10441.4 1350.89 10166.1 1184.43 9711.57 1184.43H5985.64L6849.9 70.4253H9602.73C10575.8 70.4253 11805 377.736 11805 1600.58C11805 2266.42 11388.9 2817.02 10684.7 2957.87C10831.9 3066.71 10992 3220.36 11286.4 3521.27Z" fill="black"/>
<path d="M13882 3252.38H17524.7L16673.3 4353.57H12550.4V70.4253H17511.9L16654.1 1184.43H13882V1696.61H17275.1L16513.2 2669.77H13882V3252.38Z" fill="black"/>
<path d="M22317.6 4424C22151.1 4424 21991.1 4385.59 21786.2 4193.52L19161.4 1837.46V4353.57H17957.9V800.289C17957.9 230.483 18303.6 0 18681.3 0C18841.3 0 19001.4 38.4138 19212.6 230.483L21837.4 2586.54V70.4253H23047.4V3617.31C23047.4 4187.11 22701.7 4424 22317.6 4424Z" fill="black"/>
<path d="M30440 4353.57H25459.3L26259.5 3252.38H27335.1C27591.1 3252.38 27892 3252.38 28096.9 3265.18C27981.7 3111.53 27802.4 2849.03 27661.6 2644.16L26893.3 1510.95L24883.1 4353.57H23314.6L26061.1 480.174C26240.3 230.483 26502.8 0 26918.9 0C27315.9 0 27578.3 211.276 27764 480.174L30440 4353.57Z" fill="black"/>
<path d="M0 4155.05V1440.17C0 1192.03 96.9074 953.693 270.069 775.963C640.253 396.015 1249.6 392.059 1624.68 767.168L4127.59 3270.22C4205.12 3347.75 4205.12 3473.45 4127.59 3550.97L3465.41 4213.2C3387.88 4290.73 3262.19 4290.73 3184.67 4213.2L1509.38 2537.81C1446.85 2475.28 1339.94 2519.57 1339.94 2608V4155.05C1339.94 4264.69 1251.07 4353.57 1141.43 4353.57H198.51C88.8759 4353.57 0 4264.69 0 4155.05Z" fill="#FB408D"/>
<path d="M2125.47 424.262C2000.41 299.2 2088.98 85.3643 2265.83 85.3643H4069.45C4179.08 85.3643 4267.96 174.245 4267.96 283.886V1226.86C4267.96 1336.5 4179.08 1425.38 4069.45 1425.38H3208.75C3156.11 1425.38 3105.61 1404.47 3068.39 1367.24L2125.47 424.262Z" fill="#FB408D"/>
</svg>
